<?xml version="1.0" encoding="UTF-8"?>
<svg id="Layer_1" xmlns="http://www.w3.org/2000/svg" xmlns:svg="http://www.w3.org/2000/svg" xmlns:sodipodi="http://sodipodi.sourceforge.net/DTD/sodipodi-0.dtd" xmlns:rdf="http://www.w3.org/1999/02/22-rdf-syntax-ns#" xmlns:inkscape="http://www.inkscape.org/namespaces/inkscape" xmlns:dc="http://purl.org/dc/elements/1.1/" xmlns:cc="http://creativecommons.org/ns#" version="1.1" viewBox="0 0 471.7 316.8">
  <!-- Generator: Adobe Illustrator 30.7.0, SVG Export Plug-In . SVG Version: 2.1.4 Build 114)  -->
  <defs>
    <style>
      .st0 {
        fill: #3f3d5c;
      }

      .st1 {
        fill: #f2f2f0;
      }

      .st2 {
        fill: #2d2d42;
      }

      .st3 {
        fill: #cc3925;
      }

      .st4 {
        fill: #a9aeb2;
      }

      .st5 {
        fill: #bec3c5;
      }
    </style>
  </defs>
  <g id="svg3255">
    <g>
      <g>
        <path class="st2" d="M322.7,254.7h-116.3,0l-8.5,21.8c-1.6,4.1,1.4,8.6,5.8,8.6h121.7l-2.7-30.4Z"/>
        <g id="rect3263-1">
          <path class="st1" d="M100,251.8c-5.1,0-9.3-4.2-9.3-9.3V13.5c0-5.1,4.2-9.3,9.3-9.3h331.6c5.1,0,9.3,4.2,9.3,9.3v229.1c0,5.1-4.2,9.3-9.3,9.3H100v-.1Z"/>
          <path class="st0" d="M431.6,8.5c2.8,0,5,2.2,5,5v229.1c0,2.8-2.2,5-5,5H100c-2.8,0-5-2.2-5-5V13.5c0-2.8,2.2-5,5-5h331.6M431.6,0H100C92.6,0,86.5,6.1,86.5,13.5v229.1c0,7.4,6.1,13.5,13.5,13.5h331.6c7.4,0,13.5-6.1,13.5-13.5V13.5C445.1,6.1,439.1,0,431.6,0h0Z"/>
        </g>
        <rect id="rect4182-1" class="st4" x="119.6" y="62.4" width="292.5" height="37.5"/>
        <g id="rect4182-11">
          <path class="st3" d="M119.6,59.3V13.7h109.2v45.6h-109.2Z"/>
        </g>
        <rect id="rect4182-4-51-2-2" class="st5" x="341.8" y="103.7" width="70.3" height="139"/>
        <rect id="rect4182-4-51-2-21" class="st4" x="267.7" y="103.7" width="70.3" height="139"/>
        <rect id="rect4182-4-51-2-22" class="st5" x="193.7" y="103.7" width="70.3" height="139"/>
        <rect id="rect4182-4-51-2-23" class="st4" x="119.6" y="103.7" width="70.3" height="139"/>
      </g>
      <g>
        <g id="rect3263-1-4-9">
          <path class="st1" d="M403.9,295.8c-3.1,0-5.7-2.6-5.7-5.7v-117.3c0-3.1,2.6-5.7,5.7-5.7h61.4c3.1,0,5.7,2.6,5.7,5.7v117.3c0,3.1-2.6,5.7-5.7,5.7h-61.4Z"/>
          <path class="st0" d="M465.3,167.8c2.8,0,5,2.2,5,5v117.3c0,2.8-2.2,5-5,5h-61.4c-2.8,0-5-2.2-5-5v-117.3c0-2.8,2.2-5,5-5h61.4M465.3,166.4h-61.4c-3.5,0-6.4,2.9-6.4,6.4v117.3c0,3.5,2.9,6.4,6.4,6.4h61.4c3.5,0,6.4-2.9,6.4-6.4v-117.3c0-3.6-2.9-6.4-6.4-6.4h0Z"/>
        </g>
        <rect id="rect4182-16" class="st4" x="401.7" y="202.9" width="65.8" height="30.2"/>
        <g id="rect4182-161">
          <path class="st3" d="M401.7,199.2v-26.2h32.9v26.2h-32.9Z"/>
        </g>
        <rect id="rect4182-16-8" class="st5" x="401.7" y="236.8" width="65.8" height="51.8"/>
      </g>
      <g>
        <g id="rect3263-1-4">
          <path class="st1" d="M7.8,315.5c-3.5,0-6.4-2.9-6.4-6.4v-162.7c0-3.5,2.9-6.4,6.4-6.4h234.3c3.5,0,6.4,2.9,6.4,6.4v162.7c0,3.5-2.9,6.4-6.4,6.4H7.8Z"/>
          <path class="st0" d="M242.1,141.4c2.8,0,5,2.2,5,5v162.7c0,2.8-2.2,5-5,5H7.8c-2.8,0-5-2.2-5-5v-162.7c0-2.8,2.2-5,5-5h234.3M242.1,138.5H7.8c-4.3,0-7.8,3.5-7.8,7.8v162.7c0,4.3,3.5,7.8,7.8,7.8h234.3c4.3,0,7.8-3.5,7.8-7.8v-162.6c0-4.4-3.5-7.9-7.8-7.9h0Z"/>
        </g>
        <rect id="rect4182" class="st4" x="7.3" y="186.7" width="235.4" height="43.2"/>
        <g id="rect41821">
          <path class="st3" d="M7.3,183.5v-36h47.7v36H7.3Z"/>
        </g>
        <rect id="rect4182-4" class="st5" x="7.3" y="234.2" width="75.5" height="75.6"/>
        <rect id="rect4182-4-5" class="st4" x="87.2" y="234.2" width="75.5" height="75.6"/>
        <rect id="rect4182-4-51" class="st5" x="167.2" y="234.2" width="75.5" height="75.6"/>
      </g>
    </g>
  </g>
</svg>